<?xml version="1.0" standalone="no"?><!DOCTYPE svg PUBLIC "-//W3C//DTD SVG 1.1//EN" "http://www.w3.org/Graphics/SVG/1.1/DTD/svg11.dtd"><svg t="1584271238479" class="icon" viewBox="0 0 1024 1024" version="1.1" xmlns="http://www.w3.org/2000/svg" p-id="5699" xmlns:xlink="http://www.w3.org/1999/xlink" width="200" height="200"><defs><style type="text/css"></style></defs><path d="M817.376 682.432a16 16 0 0 0-10.368 4.672l-95.136 95.136a16 16 0 0 0 6.144 26.432l145.184 50.048a16 16 0 0 0 20.288-20.352l-50.048-145.152a16 16 0 0 0-16.064-10.784z m-5.824 45.376l31.04 89.984-89.952-31.04 58.912-58.944z" fill="#13227a" p-id="5700"></path><path d="M327.36 191.712a16 16 0 0 0-11.04 4.704l-95.136 95.04a16 16 0 0 0 0 22.72l201.312 201.28a16 16 0 1 0 22.624-22.592L255.136 302.848 327.616 230.4l189.504 189.472a16 16 0 1 0 22.624-22.624l-200.8-200.8a16 16 0 0 0-11.584-4.672z m285.44 285.12a16 16 0 0 0-11.2 27.52l194.08 194.048-72.48 72.512-193.6-193.568a16 16 0 1 0-22.592 22.624l204.864 204.896a16 16 0 0 0 22.624 0l95.136-95.136a16 16 0 0 0 0-22.624l-205.376-205.376a16 16 0 0 0-11.456-4.864z" fill="#13227a" p-id="5701"></path><path d="M254.944 139.776a65.12 65.12 0 0 0-47.52 19.072l-23.808 23.808c-25.984 25.984-25.248 68.704 0.96 94.88l36.608 36.64a16 16 0 0 0 22.624 0l95.136-95.136a16 16 0 0 0 0-22.624L302.304 159.776a68.416 68.416 0 0 0-47.36-20z m-0.256 31.936c8.992 0.32 18.048 3.744 24.992 10.688l25.312 25.312-72.48 72.448-25.312-25.248c-14.368-14.368-14.464-36.096-0.96-49.6l23.808-23.84c6.72-6.72 15.648-9.92 24.64-9.76z" fill="#13227a" p-id="5702"></path><path d="M289.12 244.16l-22.56 22.72 206.016 204.608 22.56-22.72L289.12 244.16z m284.8 282.88l-22.56 22.688 202.752 201.376 22.56-22.688-202.72-201.376z" fill="#13227a" p-id="5703"></path><path d="M263.84 720.768a16 16 0 0 0-22.624 0l-45.248 45.248a16 16 0 0 0 0 22.624l39.424 39.424a16 16 0 0 0 22.624 0l45.248-45.248a16 16 0 0 0 0-22.624l-39.424-39.424z m-11.328 33.92l16.8 16.8-22.624 22.624-16.8-16.768 22.624-22.624z" fill="#13227a" p-id="5704"></path><path d="M213.568 787.776L160 841.344l22.624 22.624 53.568-53.568-22.624-22.624z" fill="#13227a" p-id="5705"></path><path d="M757.632 180.544a16 16 0 0 0-11.136 4.672l-226.24 226.336a16 16 0 0 0 0 22.624l69.856 69.856a16 16 0 0 0 22.624 0l226.24-226.304a16 16 0 0 0 0-22.624l-69.856-69.888a16 16 0 0 0-11.52-4.672z m0.192 38.624l47.232 47.232-203.616 203.712-47.264-47.264 203.648-203.68z" fill="#13227a" p-id="5706"></path><path d="M802.816 135.36a16 16 0 0 0-11.136 4.672l-43.808 43.84a16 16 0 1 0 22.624 22.592l32.512-32.48 47.296 47.232-31.936 31.936a16 16 0 1 0 22.624 22.624l43.264-43.232a16 16 0 0 0 0-22.624l-69.952-69.888a16 16 0 0 0-11.52-4.672z m-272.96 272.672a16 16 0 0 0-10.976 4.896L226.112 705.6a16 16 0 0 0 0 22.624l69.888 69.888a16 16 0 0 0 22.688 0l73.12-73.12 36.64-36.64a16 16 0 1 0-22.624-22.624l-36.64 36.576-61.856 61.856-47.264-47.232 281.44-281.376a16 16 0 0 0-11.616-27.52z m69.888 69.888a16 16 0 0 0-11.008 4.864l-73.184 73.184-73.184 73.184a16 16 0 1 0 22.624 22.624l73.184-73.184 73.184-73.184a16 16 0 0 0-11.616-27.52z" fill="#13227a" p-id="5707"></path><path d="M668.928 182.4a16 16 0 0 0-11.04 4.704l-135.648 135.616a16 16 0 1 0 22.624 22.624l124.32-124.288 22.944 22.912 77.44 77.44a16 16 0 1 0 22.624-22.624l-77.44-77.44-34.24-34.24a16 16 0 0 0-11.584-4.672z" fill="#13227a" p-id="5708"></path></svg>