<?xml version="1.0" standalone="no"?><!DOCTYPE svg PUBLIC "-//W3C//DTD SVG 1.1//EN" "http://www.w3.org/Graphics/SVG/1.1/DTD/svg11.dtd"><svg t="1584273561738" class="icon" viewBox="0 0 1024 1024" version="1.1" xmlns="http://www.w3.org/2000/svg" p-id="6675" xmlns:xlink="http://www.w3.org/1999/xlink" width="200" height="200"><defs><style type="text/css"></style></defs><path d="M938.666667 423.253333V874.666667a21.333333 21.333333 0 0 1-21.333334 21.333333h-32a21.333333 21.333333 0 0 1-21.333333-21.333333v-379.733334l-304.64 219.306667a63.573333 63.573333 0 0 1-35.84 11.093333h-23.04a63.573333 63.573333 0 0 1-35.84-11.093333l-369.92-266.666667a20.906667 20.906667 0 0 1-9.386667-17.493333v-6.826667a20.906667 20.906667 0 0 1 9.386667-17.493333l369.92-266.666667a63.573333 63.573333 0 0 1 35.84-11.093333h23.04a63.573333 63.573333 0 0 1 35.84 11.093333l369.92 266.666667a20.906667 20.906667 0 0 1 9.386667 17.493333z m-415.146667 376.746667h-23.04a142.08 142.08 0 0 1-79.786667-25.173333L256 655.786667V725.333333c0 94.293333 114.773333 170.666667 256 170.666667s256-76.373333 256-170.666667v-69.546666l-166.4 119.893333a138.666667 138.666667 0 0 1-78.08 24.32z" p-id="6676" fill="#ffffff"></path></svg>