<?xml version="1.0" standalone="no"?><!DOCTYPE svg PUBLIC "-//W3C//DTD SVG 1.1//EN" "http://www.w3.org/Graphics/SVG/1.1/DTD/svg11.dtd"><svg t="1584281899213" class="icon" viewBox="0 0 1024 1024" version="1.1" xmlns="http://www.w3.org/2000/svg" p-id="2060" xmlns:xlink="http://www.w3.org/1999/xlink" width="200" height="200"><defs><style type="text/css"></style></defs><path d="M992 160a64 64 0 0 0-64-64H96a64 64 0 0 0-64 64v96a64 64 0 0 0 64 64h832a64 64 0 0 0 64-64zM96 860.16A65.92 65.92 0 0 0 160 928h704a66.24 66.24 0 0 0 64-67.84V384H96zM416 512h192a64 64 0 0 1 0 128h-192a64 64 0 0 1 0-128z" fill="#ffffff" p-id="2061"></path></svg>